<svg width="31" height="29" viewBox="0 0 31 29" fill="none" xmlns="http://www.w3.org/2000/svg">
<path d="M24.1586 1.16371C23.8593 0.958588 23.4779 0.941006 23.1552 1.12268C21.4008 2.13069 19.7051 3.28521 18.1033 4.55695C17.892 4.7269 17.763 4.9789 17.7512 5.24849C17.7395 5.51807 17.8451 5.78179 18.0387 5.96933C21.3597 9.12815 25.9599 18.8156 27.016 23.2696C24.7277 19.4016 19.623 10.3003 16.2843 7.18832C15.9264 6.85427 15.3631 6.85427 15.0052 7.18832C11.6607 10.3003 6.57358 19.4075 4.28524 23.2813C5.34139 18.8273 9.9298 9.12815 13.2508 5.96933C13.4503 5.78179 13.5559 5.51807 13.5442 5.24849C13.5325 4.9789 13.4034 4.7269 13.1921 4.55695C11.5903 3.28521 9.88873 2.13069 8.14021 1.12268C7.82923 0.941006 7.4361 0.958588 7.13686 1.16371C3.05893 3.97089 0.623901 8.58312 0.623901 13.506C0.623901 17.1043 1.92063 20.5737 4.28524 23.2813C7.11339 26.5984 11.25 28.5089 15.6448 28.5089C20.0396 28.5089 24.182 26.6042 27.016 23.2754C29.3689 20.5796 30.6656 17.1102 30.6656 13.506C30.6656 8.58312 28.2306 3.97089 24.1586 1.16371Z" fill="#FFB548"/>
</svg>
